<svg xmlns="http://www.w3.org/2000/svg" xmlns:xlink="http://www.w3.org/1999/xlink" viewBox="0 0 350 330">
  <animate
    attributeName="opacity"
    to="0"
    dur="0.5s"
    begin="animEnd.end - 1s"
    repeatCount="1"
    fill="freeze"/>
    <g class="board">
      <g class="cabin" transform-origin="170 220">
        <path d="M175.44,249.28h48.36a13.27,13.27,0,0,0,13-10.65l3.74-18.32H172.36v25.89A3.09,3.09,0,0,0,175.44,249.28Z" fill="none" stroke="#fff" stroke-linecap="round" stroke-linejoin="round" stroke-width="2"/>
        <path d="M235.79,241.69h-9.22a8.31,8.31,0,0,1-8.28-8.31V220.31" fill="none" stroke="#fff" stroke-linecap="round" stroke-miterlimit="10" stroke-width="2"/>
        <path d="M185.64,231.88h-2.05a3.45,3.45,0,0,0-3.43,3.45v2.92a3.45,3.45,0,0,0,3.43,3.45h2.05a3.45,3.45,0,0,0,3.43-3.45v-2.92A3.45,3.45,0,0,0,185.64,231.88Z" fill="none" stroke="#fff" stroke-linecap="round" stroke-linejoin="round" stroke-width="2"/>
        <animateTransform
          attributeName="transform"
          type="scale"
          values="1 1; 1 0.8; 1 1"
          keyTimes="0; 0.5; 1"
          keySplines="0.33, 1, 0.68, 1; 0.33, 1, 0.68, 1"
          calcMode="spline"
          dur="2.5s"
          additive="sum"
          repeatCount="2"/>
        <animateTransform
          attributeName="transform"
          type="skewX"
          values="0; 5; 0"
          keyTimes="0; 0.5; 1"
          keySplines="0.33, 1, 0.68, 1; 0.33, 1, 0.68, 1"
          calcMode="spline"
          dur="2.5s"
          additive="sum"
          repeatCount="2"/>
      </g>
      <g class="wing">
        <g class="top">
          <path d="M123.23,173.34h9.16a3.29,3.29,0,0,1,3.29,3.3v5.71a3.29,3.29,0,0,1-3.29,3.3H115.57a1.32,1.32,0,0,1-1.32-1.32v-2a9,9,0,0,1,9-9" fill="#068e4d"/>
          <path d="M123.23,173.34h9.16a3.29,3.29,0,0,1,3.29,3.3v5.71a3.29,3.29,0,0,1-3.29,3.3H115.57a1.32,1.32,0,0,1-1.32-1.32v-2A9,9,0,0,1,123.23,173.34Z" fill="none" stroke="#fff" stroke-linecap="round" stroke-linejoin="round" stroke-width="2"/>
        </g>
        <g class="bottom">
          <path d="M123.23,207.39h9.16a3.29,3.29,0,0,0,3.29-3.3v-5.71a3.29,3.29,0,0,0-3.29-3.3H115.57a1.32,1.32,0,0,0-1.32,1.32v2a9,9,0,0,0,9,9" fill="#068e4d"/>
          <path d="M123.23,207.39h9.16a3.29,3.29,0,0,0,3.29-3.3v-5.71a3.29,3.29,0,0,0-3.29-3.3H115.57a1.32,1.32,0,0,0-1.32,1.32v2A9,9,0,0,0,123.23,207.39Z" fill="none" stroke="#fff" stroke-linecap="round" stroke-linejoin="round" stroke-width="2"/>
        </g>
        <animateTransform
          attributeName="transform"
          type="translate"
          values="0 -3; 0 3; 0 -3;"
          keyTimes="0; 0.5; 1"
          keySplines="0.33, 1, 0.68, 1; 0.33, 1, 0.68, 1"
          calcMode="spline"
          dur="2.5s"
          repeatCount="indefinite"/>
      </g>
      <g class="ball">
        <path d="M205,227.08c43.38,0,74.86-15.55,74.86-37s-31.48-37-74.86-37c-27.94,0-55.36,13.53-73.46,24.87a14.3,14.3,0,0,0,0,24.21c18.09,11.33,45.52,24.87,73.46,24.87" fill="#068e4d"/>
        <path d="M205,227.08c43.38,0,74.86-15.55,74.86-37s-31.48-37-74.86-37c-27.94,0-55.36,13.53-73.46,24.87a14.3,14.3,0,0,0,0,24.21C149.63,213.54,177.06,227.08,205,227.08Z" fill="none" stroke="#fff" stroke-width="2"/>
        <path d="M205,176.09c-28.23,0-56.07,5.76-72.81,10-3.95,1-6,2.66-6.08,4.34A12.93,12.93,0,0,1,132.18,179c16.74-10.5,44.58-24.68,72.81-24.68,44.81,0,73.64,16,73.64,35.75,0,0.12,0,.24,0,0.37-0.37-7.95-29.1-14.37-73.63-14.37" fill="#36e69a"/>
        <path d="M132.18,195.12c16.74,4.27,44.58,10,72.81,10,44.14,0,72.75-6.32,73.6-14.18-0.86,19.34-29.45,34.86-73.6,34.86-28.23,0-56.07-14.19-72.81-24.68a12.88,12.88,0,0,1-6-10.18c0.26,1.61,2.26,3.18,6,4.14" fill="#068e4d"/>
        <path id="colorBall" d="M132.18,186.12c16.74-4.27,44.58-10,72.81-10,44.53,0,73.26,6.43,73.61,14.38,0,0.17,0,.34,0,0.51-0.85,7.86-29.45,14.17-73.6,14.17-28.23,0-56.07-5.76-72.81-10-3.79-1-5.79-2.53-6-4.13l0-.51c0.13-1.69,2.15-3.36,6.1-4.37" fill="#25b774"
        />
        <animateTransform
          xlink:href="#colorBall"
          attributeName="transform"
          type="translate"
          values="0 0; 0 -3; 0 0"
          keyTimes="0; 0.5; 1"
          keySplines="0.33, 1, 0.68, 1; 0.33, 1, 0.68, 1"
          calcMode="spline"
          dur="2.5s"
          repeatCount="indefinite"/>
      </g>
      <g class="porthole" transform-origin="170 220">
         <path id="porthole" transform-origin="170 220" d="M204.25,231.88h-2.05a3.45,3.45,0,0,0-3.43,3.45v2.92a3.45,3.45,0,0,0,3.43,3.45h2.05a3.45,3.45,0,0,0,3.43-3.45v-2.92A3.44,3.44,0,0,0,204.25,231.88Z" fill="none" stroke="#fff" stroke-linecap="round" stroke-linejoin="round" stroke-width="2"/>
         <animateTransform
          attributeName="transform"
          type="scale"
          values="1 1; 1 0.8; 1 1"
          keyTimes="0; 0.5; 1"
          keySplines="0.33, 1, 0.68, 1; 0.33, 1, 0.68, 1"
          calcMode="spline"
          dur="2.5s"
          additive="sum"
          repeatCount="1"/>
        <animateTransform
          attributeName="transform"
          type="skewX"
          values="0; 5; 0"
          keyTimes="0; 0.5; 1"
          keySplines="0.33, 1, 0.68, 1; 0.33, 1, 0.68, 1"
          calcMode="spline"
          dur="2.5s"
          additive="sum"
          repeatCount="1"/>
        <animate
          xlink:href="#porthole"
          attributeName="d"
          from="M 206.677 240.682 C 207.319 240.036 207.68 239.161 207.68 238.25 C 207.68 237.277 207.68 236.303 207.68 235.33 C 207.682 234.726 207.525 234.132 207.224 233.609 C 206.924 233.085 206.491 232.649 205.969 232.346 C 205.447 232.042 204.854 231.882 204.25 231.88 C 204.25 231.88 204.25 231.88 204.25 231.88 L 202.2 231.88 C 201.289 231.885 200.416 232.251 199.773 232.898 C 199.131 233.544 198.77 234.419 198.77 235.33 L 198.77 238.25 C 198.77 239.161 199.131 240.036 199.773 240.682 C 200.416 241.329 201.289 241.695 202.2 241.7 C 202.883 241.7 203.567 241.7 204.25 241.7 C 205.161 241.695 206.034 241.329 206.677 240.682"
          to="M 275 225.43 C 269.29 225.43 263.58 225.43 257.87 225.43 C 253.221 225.409 248.765 223.547 245.484 220.254 C 242.202 216.961 240.355 212.499 240.35 207.85 C 240.35 195.233 240.35 182.617 240.35 170 C 240.355 165.351 242.202 160.889 245.484 157.596 C 248.765 154.303 253.221 152.441 257.87 152.42 L 275 152.42 C 279.647 152.444 284.1 154.307 287.38 157.6 C 290.659 160.892 292.505 165.353 292.51 170 L 292.51 188.915 C 292.51 195.22 292.51 201.525 292.51 207.83 C 292.507 212.48 290.663 216.944 287.384 220.24 C 284.105 223.537 279.65 225.404 275 225.43 C 275 225.43 275 225.43 275 225.43"
          dur="0.7s"
          repeatCount="1"
          fill="freeze"
          begin="2.5s"/>
        <animate
          id="animEnd"
          xlink:href="#porthole"
          attributeName="opacity"
          to="0"
          dur="1.5s"
          begin="2.5s"
          repeatCount="1"
          fill="freeze"
          additive="sum"/>
      </g>
      <g class="wing">
        <g class="top">
          <path d="M123.23,173.34h9.16a3.29,3.29,0,0,1,3.29,3.3v5.71a3.29,3.29,0,0,1-3.29,3.3H115.57a1.32,1.32,0,0,1-1.32-1.32v-2a9,9,0,0,1,9-9" fill="#068e4d"/>
          <path d="M123.23,173.34h9.16a3.29,3.29,0,0,1,3.29,3.3v5.71a3.29,3.29,0,0,1-3.29,3.3H115.57a1.32,1.32,0,0,1-1.32-1.32v-2A9,9,0,0,1,123.23,173.34Z" fill="none" stroke="#fff" stroke-linecap="round" stroke-linejoin="round" stroke-width="2"/>
        </g>
        <g class="bottom">
          <path d="M123.23,207.39h9.16a3.29,3.29,0,0,0,3.29-3.3v-5.71a3.29,3.29,0,0,0-3.29-3.3H115.57a1.32,1.32,0,0,0-1.32,1.32v2a9,9,0,0,0,9,9" fill="#068e4d"/>
          <path d="M123.23,207.39h9.16a3.29,3.29,0,0,0,3.29-3.3v-5.71a3.29,3.29,0,0,0-3.29-3.3H115.57a1.32,1.32,0,0,0-1.32,1.32v2A9,9,0,0,0,123.23,207.39Z" fill="none" stroke="#fff" stroke-linecap="round" stroke-linejoin="round" stroke-width="2"/>
        </g>
       <animateTransform
          attributeName="transform"
          type="translate"
          values="0 3; 0 -3; 0 3;"
          keyTimes="0; 0.5; 1"
          keySplines="0.33, 1, 0.68, 1; 0.33, 1, 0.68, 1"
          calcMode="spline"
          dur="2.5s"
          repeatCount="indefinite"/>
      </g>
    </g>
    <g class="cloud">
      <line x1="68.95" y1="107.8" x2="131.86" y2="107.8" fill="none" stroke="#fff" stroke-linecap="round" stroke-miterlimit="10" stroke-width="2"/>
      <g>
        <path d="M41.77,97.54H77.06a12.4,12.4,0,1,1,24.8,0h17.93" fill="none" stroke="#fff" stroke-linecap="round" stroke-miterlimit="10" stroke-width="2"/>
      </g>
      <line x1="258.96" y1="93.19" x2="298.74" y2="93.19" fill="none" stroke="#fff" stroke-linecap="round" stroke-miterlimit="10" stroke-width="2"/>
      <g>
        <path d="M278.75,82.91H251.39a12.4,12.4,0,1,0-24.8,0H208.65" fill="none" stroke="#fff" stroke-linecap="round" stroke-miterlimit="10" stroke-width="2"/>
        <line x1="287.01" y1="82.91" x2="309.21" y2="82.91" fill="none" stroke="#fff" stroke-linecap="round" stroke-miterlimit="10" stroke-width="2"/>
      </g>
      <animateTransform
        attributeName="transform"
        type="translate"
        from="200 0"
        to="-250 0"
        dur="2.5s"
        repeatCount="indefinite"/>
      <animate
        attributeName="opacity"
        values="0;1;0"
        dur="4s"
        repeatCount="indefinite"/>
    </g>
    <g>
      <line id="line" x1="106.25" y1="179.49" x2="84.05" y2="179.49" fill="none" stroke="#fff" stroke-linecap="round" stroke-miterlimit="10" stroke-width="2"/>
      <animate xlink:href="#line" attributeName="x2" values="77;80;76;82;88;86" dur="0.7s" repeatCount="indefinite"/>
    </g>
    <g>
      <line id="line2" x1="106.25" y1="201.23" x2="84.05" y2="201.23" fill="none" stroke="#fff" stroke-linecap="round" stroke-miterlimit="10" stroke-width="2"/>
      <animate xlink:href="#line2" attributeName="x2" values="88;82;76;84" dur="0.7s" repeatCount="indefinite"/>
    </g>
    <g>
      <line id="line3" x1="106.25" y1="190.98" x2="68.77" y2="190.98" fill="none" stroke="#fff" stroke-linecap="round" stroke-miterlimit="10" stroke-width="2"/>
      <animate xlink:href="#line3" attributeName="x2" values="62;60;63;66;" dur="0.7s" repeatCount="indefinite"/>
    </g>
    <g>
      <path d="M289.94,327.88H244.88L212.8,296.58a1.89,1.89,0,0,0-2.44,0l-10.2,10.23a1.72,1.72,0,0,1-2.25,0l-19-20.17a2.4,2.4,0,0,0-3.1,0l-26.42,25.64a1.71,1.71,0,0,1-2.25,0l-2.63-2.92a1.71,1.71,0,0,0-2.31,0L124.63,329H80.78" fill="none" stroke="#fff" stroke-linecap="round" stroke-miterlimit="10" stroke-width="2"/>
      <path d="M289.94,328H200.15c-0.86,0-1.56,0-2.25,0h-19c-1.5,0-2.23,0-3.1,0h-32.3c-1.09,0-1.66,0-2.31,0H80.78" fill="none" stroke="#fff" stroke-linecap="round" stroke-miterlimit="10" stroke-width="2"/>
    </g>
</svg>
